<svg id="Capa_1" enable-background="new 0 0 512 512" height="512" viewBox="0 0 512 512" width="512" xmlns="http://www.w3.org/2000/svg"><g><path d="m256 213.956h-132.275c-13.158 0-23.824-10.666-23.824-23.824v-23.824h2.819c8.772 0 15.883-7.111 15.883-15.883v-78.952c0-39.474 32-71.473 71.473-71.473h65.924z" fill="#2d2d2d"/><g><path d="m153.848 212.956c-21.93 0-39.707 17.777-39.707 39.707v48.113h141.859l20-43.91-20-43.91z" fill="#ff6c6c"/><path d="m397.859 252.663c0-21.93-17.777-39.707-39.707-39.707h-102.152v87.82h141.859z" fill="#ff415b"/></g><g><path d="m83 290.776 21.711 206.224h151.289l21.055-114-21.055-92.224z" fill="#dce6eb"/><path d="m429 290.776h-173v206.224h151.289z" fill="#b9c3cd"/></g><g><path d="m256 512h-191.788v-30h191.788l10 15z" fill="#b9c3cd"/></g><path d="m256 424.822c-17.084 0-30.934-13.849-30.934-30.934s13.849-30.934 30.934-30.934l10 30.934z" fill="#6aa8ff"/><path d="m256 362.954c17.084 0 30.934 13.849 30.934 30.934s-13.85 30.934-30.934 30.934z" fill="#2681ff"/><g><path d="m180.491 87.085v50.414c0 41.635 33.302 76.146 74.936 76.454.192.001.381-.01.572-.01l20-85.61-20-72.182z" fill="#ffe4c2"/><path d="m256 56.151v157.792c41.701-.002 75.509-33.795 75.509-75.496v-51.362z" fill="#f2bb88"/></g><g><path d="m256 0c-41.702 0-75.509 33.806-75.509 75.509v11.576h44.575c17.084 0 30.934-13.85 30.934-30.934l10-26.151z" fill="#5a5a5a"/><path d="m256 0v56.151c0 17.084 13.849 30.934 30.934 30.934h44.575v-11.576c0-41.703-33.807-75.509-75.509-75.509z" fill="#2d2d2d"/></g><g><path d="m256 482h191.788v30h-191.788z" fill="#909ba6"/></g></g></svg>